<svg width="129" height="18" viewBox="0 0 129 18" fill="none" xmlns="http://www.w3.org/2000/svg">
<path d="M13.544 17L9.944 10.904C11.672 10.496 13.448 8.984 13.448 6.152C13.448 3.176 11.408 0.991999 8.072 0.991999H0.584V17H3.992V11.312H6.488L9.632 17H13.544ZM7.568 8.312H3.992V3.992H7.568C8.936 3.992 9.968 4.808 9.968 6.152C9.968 7.496 8.936 8.312 7.568 8.312ZM28.5339 17V14H20.6139V10.376H28.3659V7.376H20.6139V3.992H28.5339V0.991999H17.2059V17H28.5339ZM42.5741 17V14H35.8061V0.991999H32.3981V17H42.5741ZM49.5686 17V0.991999H46.1606V17H49.5686ZM61.6985 17.312C64.6025 17.312 66.8825 16.112 68.5145 14.288V8.144H60.8825V11.12H65.1065V13.04C64.4585 13.64 63.1145 14.264 61.6985 14.264C58.7945 14.264 56.6825 12.032 56.6825 9.008C56.6825 5.984 58.7945 3.752 61.6985 3.752C63.4025 3.752 64.7705 4.712 65.4905 5.84L68.3225 4.304C67.1225 2.408 65.0345 0.727999 61.6985 0.727999C57.0185 0.727999 53.1785 3.944 53.1785 9.008C53.1785 14.048 57.0185 17.312 61.6985 17.312ZM86.8199 17V0.991999H83.3879V7.28H75.8279V0.991999H72.4199V17H75.8279V10.28H83.3879V17H86.8199Z" fill="#333333"/>
<path d="M98.3026 17V3.992H102.959V0.991999H90.1906V3.992H94.8706V17H98.3026ZM109.751 17V0.991999H106.343V17H109.751ZM128.649 17L122.841 8.768L128.289 0.991999H124.185L120.561 6.464L116.889 0.991999H112.833L118.281 8.792L112.473 17H116.529L120.561 11.144L124.569 17H128.649Z" fill="black"/>
</svg>
