<svg width="126" height="7" viewBox="0 0 126 7" fill="none" xmlns="http://www.w3.org/2000/svg">
<path d="M5.76666 6L7.33416 0.775H6.51716L5.33916 4.993L4.12316 0.775H3.49616L2.27066 4.9835L1.10216 0.775H0.275664L1.84316 6H2.62216L3.80016 1.9055L4.98766 6H5.76666ZM11.777 6V5.3445H8.88905V3.6535H11.7295V2.998H8.88905V1.4305H11.777V0.775H8.14805V6H11.777ZM15.499 6C16.5155 6 17.1045 5.43 17.1045 4.5845C17.1045 3.986 16.6675 3.435 16.0975 3.302C16.5725 3.169 16.9905 2.7415 16.9905 2.1145C16.9905 1.326 16.411 0.775 15.442 0.775H12.9815V6H15.499ZM15.3945 5.3445H13.7225V3.6535H15.3945C16.012 3.6535 16.335 4.062 16.335 4.5085C16.335 5.0215 15.9835 5.3445 15.3945 5.3445ZM15.347 2.998H13.7225V1.4305H15.347C15.9075 1.4305 16.2305 1.744 16.2305 2.219C16.2305 2.656 15.9265 2.998 15.347 2.998ZM22.591 6C24.301 6 25.3745 4.879 25.3745 3.397C25.3745 1.915 24.301 0.775 22.5815 0.775H20.691V6H22.591ZM22.5815 5.3445H21.432V1.4305H22.591C23.9115 1.4305 24.605 2.314 24.605 3.397C24.605 4.48 23.8925 5.3445 22.5815 5.3445ZM30.1647 6V5.3445H27.2767V3.6535H30.1172V2.998H27.2767V1.4305H30.1647V0.775H26.5357V6H30.1647ZM33.8202 6L36.0242 0.775H35.1977L33.3737 5.1735L31.5687 0.775H30.7232L32.9272 6H33.8202ZM40.4348 6V5.3445H37.5468V3.6535H40.3873V2.998H37.5468V1.4305H40.4348V0.775H36.8058V6H40.4348ZM44.9168 6V5.3445H42.3803V0.775H41.6393V6H44.9168ZM48.2182 6.114C49.8332 6.114 50.9162 4.9265 50.9162 3.3875C50.9162 1.8485 49.8332 0.661 48.2182 0.661C46.5842 0.661 45.5202 1.8485 45.5202 3.3875C45.5202 4.9265 46.5842 6.114 48.2182 6.114ZM48.2182 5.4585C47.0307 5.4585 46.2802 4.5655 46.2802 3.3875C46.2802 2.2 47.0307 1.3165 48.2182 1.3165C49.3867 1.3165 50.1562 2.2 50.1562 3.3875C50.1562 4.5655 49.3867 5.4585 48.2182 5.4585ZM52.8173 6V3.9765H54.3183C55.4678 3.9765 56.0378 3.2355 56.0378 2.371C56.0378 1.516 55.4488 0.775 54.3183 0.775H52.0763V6H52.8173ZM54.2518 3.321H52.8173V1.4305H54.2518C54.9168 1.4305 55.2683 1.8295 55.2683 2.371C55.2683 2.922 54.9358 3.321 54.2518 3.321ZM62.4451 6V0.775H61.4191L59.7376 4.6415L58.0561 0.775H57.0396V6H57.7806V1.896L59.5856 6H59.9086L61.6946 1.896V6H62.4451ZM67.4968 6V5.3445H64.6088V3.6535H67.4493V2.998H64.6088V1.4305H67.4968V0.775H63.8678V6H67.4968ZM73.2803 6V0.775H72.5298V4.765L69.4803 0.775H68.7013V6H69.4423V1.934L72.5298 6H73.2803ZM76.5942 6V1.4305H78.2187V0.775H74.2382V1.4305H75.8532V6H76.5942ZM83.3154 6.114C84.7119 6.114 85.3674 5.43 85.3674 4.5465C85.3674 2.5705 82.1564 3.264 82.1564 2.1335C82.1564 1.649 82.6314 1.307 83.2774 1.307C83.8569 1.307 84.4554 1.5065 84.8544 1.934L85.2439 1.4115C84.7879 0.946 84.1324 0.661 83.2869 0.661C82.2134 0.661 81.3964 1.2785 81.3964 2.1525C81.3964 4.043 84.6074 3.2545 84.6074 4.575C84.6074 5.0405 84.2464 5.4775 83.3249 5.4775C82.5934 5.4775 81.9759 5.1165 81.6244 4.7365L81.2254 5.297C81.6529 5.772 82.3844 6.114 83.3154 6.114ZM88.853 6.114C90.468 6.114 91.551 4.9265 91.551 3.3875C91.551 1.8485 90.468 0.661 88.853 0.661C87.219 0.661 86.155 1.8485 86.155 3.3875C86.155 4.9265 87.219 6.114 88.853 6.114ZM88.853 5.4585C87.6655 5.4585 86.915 4.5655 86.915 3.3875C86.915 2.2 87.6655 1.3165 88.853 1.3165C90.0215 1.3165 90.791 2.2 90.791 3.3875C90.791 4.5655 90.0215 5.4585 88.853 5.4585ZM95.9885 6V5.3445H93.452V0.775H92.711V6H95.9885ZM99.3041 6.114C100.796 6.114 101.556 5.278 101.556 3.986V0.775H100.805V3.9385C100.805 4.8695 100.273 5.4585 99.3041 5.4585C98.3351 5.4585 97.8126 4.8695 97.8126 3.9385V0.775H97.0621V3.986C97.0621 5.2685 97.8126 6.114 99.3041 6.114ZM104.872 6V1.4305H106.496V0.775H102.516V1.4305H104.131V6H104.872ZM108.203 6V0.775H107.462V6H108.203ZM112.065 6.114C113.68 6.114 114.763 4.9265 114.763 3.3875C114.763 1.8485 113.68 0.661 112.065 0.661C110.431 0.661 109.367 1.8485 109.367 3.3875C109.367 4.9265 110.431 6.114 112.065 6.114ZM112.065 5.4585C110.877 5.4585 110.127 4.5655 110.127 3.3875C110.127 2.2 110.877 1.3165 112.065 1.3165C113.233 1.3165 114.003 2.2 114.003 3.3875C114.003 4.5655 113.233 5.4585 112.065 5.4585ZM120.502 6V0.775H119.751V4.765L116.702 0.775H115.923V6H116.664V1.934L119.751 6H120.502ZM123.607 6.114C125.003 6.114 125.659 5.43 125.659 4.5465C125.659 2.5705 122.448 3.264 122.448 2.1335C122.448 1.649 122.923 1.307 123.569 1.307C124.148 1.307 124.747 1.5065 125.146 1.934L125.535 1.4115C125.079 0.946 124.424 0.661 123.578 0.661C122.505 0.661 121.688 1.2785 121.688 2.1525C121.688 4.043 124.899 3.2545 124.899 4.575C124.899 5.0405 124.538 5.4775 123.616 5.4775C122.885 5.4775 122.267 5.1165 121.916 4.7365L121.517 5.297C121.944 5.772 122.676 6.114 123.607 6.114Z" fill="#777777"/>
</svg>
